<svg width="24" height="24" viewBox="0 0 24 24" fill="none" xmlns="http://www.w3.org/2000/svg">
<path fill-rule="evenodd" clip-rule="evenodd" d="M4.00003 4.99997C4.00003 5.00086 4.00001 5.00518 4.00309 5.01526C4.00648 5.02641 4.01486 5.04842 4.03511 5.0814C4.07755 5.15054 4.16411 5.2545 4.32627 5.38229C4.65645 5.6425 5.19619 5.92057 5.9523 6.17261C7.45405 6.67319 9.59232 6.99997 12 6.99997C14.4077 6.99997 16.546 6.67319 18.0478 6.17261C18.8039 5.92057 19.3436 5.6425 19.6738 5.38229C19.836 5.2545 19.9225 5.15054 19.965 5.0814C19.9852 5.04842 19.9936 5.02641 19.997 5.01526C20 5.00518 20 5.00092 20 5.00003C20 4.99931 20.0001 4.99503 19.997 4.98468C19.9936 4.97353 19.9852 4.95152 19.965 4.91854C19.9225 4.8494 19.836 4.74544 19.6738 4.61765C19.3436 4.35744 18.8039 4.07937 18.0478 3.82733C16.546 3.32675 14.4077 2.99997 12 2.99997C9.59232 2.99997 7.45405 3.32675 5.9523 3.82733C5.19619 4.07937 4.65645 4.35744 4.32627 4.61765C4.16411 4.74544 4.07755 4.8494 4.03511 4.91854C4.01486 4.95152 4.00648 4.97353 4.00309 4.98468C4.00001 4.99476 4.00003 4.99908 4.00003 4.99997ZM5.31984 1.92997C7.07544 1.34477 9.43718 0.999969 12 0.999969C14.5629 0.999969 16.9246 1.34477 18.6802 1.92997C19.5528 2.22082 20.3311 2.5892 20.9117 3.04682C21.4811 3.49556 22 4.14802 22 4.99997C22 5.85192 21.4811 6.50438 20.9117 6.95312C20.3311 7.41074 19.5528 7.77912 18.6802 8.06997C16.9246 8.65517 14.5629 8.99997 12 8.99997C9.43718 8.99997 7.07544 8.65517 5.31984 8.06997C4.44727 7.77912 3.66899 7.41074 3.08832 6.95312C2.51892 6.50438 2.00003 5.85192 2.00003 4.99997C2.00003 4.14802 2.51892 3.49556 3.08832 3.04682C3.66899 2.5892 4.44727 2.22082 5.31984 1.92997Z" fill="#707494"/>
<path fill-rule="evenodd" clip-rule="evenodd" d="M3.00003 11C3.55232 11 4.00003 11.4477 4.00003 12C4.00003 12.0019 4.00011 12.007 4.00343 12.018C4.00698 12.0297 4.01547 12.0521 4.03561 12.0851C4.07775 12.1543 4.16351 12.2579 4.32422 12.3853C4.65162 12.6447 5.18791 12.9223 5.9417 13.1739C7.43894 13.6738 9.5768 14 12 14C14.4233 14 16.5611 13.6738 18.0584 13.1739C18.8122 12.9223 19.3484 12.6447 19.6758 12.3853C19.8365 12.2579 19.9223 12.1543 19.9645 12.0851C19.9846 12.0521 19.9931 12.0297 19.9966 12.018C20 12.007 20 12.0019 20 12C20 11.4477 20.4477 11 21 11C21.5523 11 22 11.4477 22 12C22 12.8494 21.4868 13.502 20.918 13.9528C20.3391 14.4115 19.5629 14.7802 18.6917 15.071C16.9389 15.6562 14.5768 16 12 16C9.42327 16 7.06112 15.6562 5.30837 15.071C4.43715 14.7802 3.66094 14.4115 3.08209 13.9528C2.51323 13.502 2.00003 12.8494 2.00003 12C2.00003 11.4477 2.44775 11 3.00003 11Z" fill="#707494"/>
<path fill-rule="evenodd" clip-rule="evenodd" d="M3.00003 3.99997C3.55232 3.99997 4.00003 4.44768 4.00003 4.99997V19C4.00003 19.0019 4.00011 19.007 4.00343 19.018C4.00698 19.0297 4.01547 19.0521 4.03561 19.0851C4.07775 19.1543 4.16351 19.2579 4.32422 19.3853C4.65162 19.6447 5.18791 19.9223 5.9417 20.1739C7.43894 20.6738 9.5768 21 12 21C14.4233 21 16.5611 20.6738 18.0584 20.1739C18.8122 19.9223 19.3484 19.6447 19.6758 19.3853C19.8365 19.2579 19.9223 19.1543 19.9645 19.0851C19.9846 19.0521 19.9931 19.0297 19.9966 19.018C20 19.007 20 19.0019 20 19V5.00003C20 4.44775 20.4477 3.99997 21 3.99997C21.5523 3.99997 22 4.44768 22 4.99997V19C22 19.8493 21.4868 20.502 20.918 20.9528C20.3391 21.4115 19.5629 21.7802 18.6917 22.071C16.9389 22.6562 14.5768 23 12 23C9.42327 23 7.06112 22.6562 5.30837 22.071C4.43715 21.7802 3.66094 21.4115 3.08209 20.9528C2.51323 20.502 2.00003 19.8493 2.00003 19V4.99997C2.00003 4.44768 2.44775 3.99997 3.00003 3.99997Z" fill="#707494"/>
</svg>
